<?xml version="1.0" encoding="UTF-8"?>
<svg id="Layer_2" data-name="Layer 2" xmlns="http://www.w3.org/2000/svg" viewBox="0 0 315.4 416.1">
  <defs>
    <style>
      .cls-1 {
        fill: #2d2041;
      }
    </style>
  </defs>
  <g id="_Слой_1" data-name="Слой 1">
    <g id="Logo_6" data-name="Logo 6">
      <path class="cls-1" d="M72.4,323.9c1.3,1.7,2.1,3.7,2.3,5.9l2.5-1.8c-.5-2-1.4-3.9-2.7-5.5-1-1.5-2.3-2.7-3.8-3.6s-3.2-1.5-5-1.7c-3.7-.4-7.4,.7-10.3,3-3.1,2.2-5,5-5.7,8.2-.3,1.6-.3,3.3,.1,4.9s1.1,3.1,2.1,4.4c1.4,2,3.2,3.7,5.4,4.9l2.3-1.6c-2.2-.9-4-2.5-5.4-4.4-.8-1-1.4-2.2-1.6-3.5-.3-1.3-.3-2.6,0-3.8,.7-2.7,2.4-5,4.7-6.6,2.7-1.9,5.4-2.8,8.2-2.5,1.4,.1,2.7,.6,3.9,1.3,1.2,.2,2.2,1.2,3,2.4Z"/>
      <path class="cls-1" d="M93.1,342.3c-.7-1.4-1.7-2.7-3-3.7-2.9-2.5-6-3.5-9.4-3.1-3.3,.5-6.4,2.3-9.1,5.5-2.5,3-3.8,6.1-3.7,9.4,0,1.6,.5,3.3,1.2,4.7,.7,1.5,1.8,2.8,3.1,3.8,2.9,2.5,6,3.4,9.3,2.9s6.3-2.4,9-5.5c2.5-3,3.8-6.1,3.7-9.4,0-1.6-.3-3.1-1.1-4.6Zm-5.1,12.4c-2.2,2.5-4.5,4-7,4.4s-4.9-.3-7.1-2.2c-1-.8-1.8-1.8-2.3-3s-.8-2.4-.7-3.7c.2-2.8,1.3-5.5,3.2-7.6,1.8-2.2,4.3-3.8,7-4.3,1.3-.2,2.6-.2,3.8,.2,1.2,.4,2.4,1,3.3,1.9,2.2,1.9,3.3,4.1,3.2,6.6,0,2.5-1.1,5.1-3.4,7.7Z"/>
      <polygon class="cls-1" points="104.5 349.5 92.3 372.7 104 378.9 105.2 376.6 96 371.7 107 350.9 104.5 349.5"/>
      <polygon class="cls-1" points="124.2 358.4 121.5 357.6 113.6 382.6 126.2 386.6 127 384.1 117.1 380.9 124.2 358.4"/>
      <polygon class="cls-1" points="136.3 388.6 149.8 390.2 150.1 387.6 139.5 386.3 140.6 377 149.9 378.1 150.2 375.5 140.9 374.4 142 365.5 152 366.7 152.3 364.1 139.5 362.5 136.3 388.6"/>
      <path class="cls-1" d="M172.1,387.3c-1.3,.2-2.6,.1-3.8-.4-1.2-.4-2.4-1.1-3.3-2-2-2-3.1-4.6-3.2-7.4-.3-3.3,.4-6.1,2-8.3,.8-1.1,1.9-2,3.1-2.7s2.6-1,3.9-1.1c2.1-.2,4.3,.1,6.2,1l-.3-3.1c-2-.6-4.1-.8-6.1-.5-1.8,.1-3.5,.6-5.1,1.4s-2.9,2-4,3.4c-2.2,3-3.2,6.7-2.7,10.3,.4,3.8,1.7,6.9,4.2,9.1,1.2,1.1,2.6,1.9,4.2,2.4s3.2,.6,4.8,.4c2.5-.1,4.8-.9,6.9-2.2l-.3-2.8c-1.9,1.5-4.2,2.3-6.5,2.5Z"/>
      <polygon class="cls-1" points="197.4 356.6 180.5 361.8 181.3 364.4 188.3 362.2 195.3 384.7 198.1 383.8 191 361.3 198.1 359.1 197.4 356.6"/>
      <polygon class="cls-1" points="202.6 353.9 214.2 377.4 216.8 376.2 205.2 352.6 202.6 353.9"/>
      <path class="cls-1" d="M230.1,339.9c-1.6-.3-3.2-.3-4.8,.1-1.6,.4-3,1.1-4.3,2.1-3.1,2.3-4.7,5.1-5,8.5s.9,6.7,3.4,10.1c2.3,3.1,5.1,5,8.4,5.6,1.6,.3,3.3,.3,4.9-.1s3.1-1.1,4.3-2.2c3-2.3,4.6-5.1,4.9-8.5,.2-3.3-.9-6.7-3.5-10-2.3-3.1-5.1-4.9-8.3-5.6Zm5.4,22c-1,.8-2.1,1.4-3.4,1.6-1.2,.3-2.5,.2-3.7-.1-2.7-.8-5.1-2.4-6.7-4.8-1.8-2.2-2.8-4.9-2.7-7.8,0-1.3,.4-2.5,1-3.7,.6-1.1,1.5-2.1,2.5-2.9,2.3-1.7,4.7-2.3,7.1-1.7,2.4,.6,4.8,2.4,6.8,5,2,2.7,2.9,5.3,2.8,7.8s-1.4,4.9-3.7,6.6Z"/>
      <path class="cls-1" d="M245.8,317l14.8,11.6c1,.8,2.1,1.6,3.2,2.3v.1c-.1-.1-.8-.1-2.1-.3l-24.6-2.7-2.3,3,20.7,16.1,1.7-2.3-15.2-11.8c-.9-.8-1.9-1.4-2.9-2.1l.1-.1c.6,.1,1.1,.3,1.7,.3l25,2.4,2.2-2.8-20.7-16.1-1.6,2.4Z"/>
      <path class="cls-1" d="M310.2,5.4c-3.5-3.5-8.1-5.4-13-5.4H18.4C13.5,0,8.9,1.9,5.4,5.4S0,13.5,0,18.4v240c0,42.1,16.4,81.7,46.2,111.5,29.8,29.8,69.4,46.2,111.5,46.2h1.3c41.6-.3,80.7-16.7,110.2-46.2,29.8-29.8,46.2-69.4,46.2-111.5V18.3c.1-4.9-1.8-9.5-5.2-12.9Zm-.7,252.9c0,40.5-15.8,78.6-44.4,107.3-28.7,28.7-66.8,44.4-107.3,44.4h-1.3c-40-.3-77.6-16.1-106-44.4-28.7-28.7-44.4-66.8-44.4-107.3V18.3c0-3.3,1.3-6.4,3.6-8.7s5.4-3.6,8.7-3.6H297.2c3.3,0,6.4,1.3,8.7,3.6s3.6,5.4,3.6,8.7v240Z"/>
      <path class="cls-1" d="M21.6,138h-3v112.7c0,20.6,4.5,41.3,13.1,59.9l2.7-1.3c-8.4-18.2-12.9-38.5-12.9-58.6v-112.7h.1Z"/>
      <path class="cls-1" d="M294.6,250.7c0,20.1-4.4,40.4-12.9,58.6l2.7,1.3c8.6-18.6,13.2-39.3,13.1-59.9v-112.7h-3v112.7h.1Z"/>
      <path class="cls-1" d="M41.7,43.8c.7,.4,1.6,.6,2.4,.7,1.1,.1,2.1,.6,2.9,1.5,.8,1,1.5,2.2,1.8,3.5l17.1,51.5c.3,.8,.6,1.7,.9,2.5,.1,.2,.3,.4,.5,.5s.4,.1,.7,.1c.2,0,.4,0,.6-.1s.3-.2,.5-.3c.5-.7,.9-1.5,1-2.4l12-40.6c.3-.9,.5-1.4,.6-1.4s.3,.5,.6,1.4l13.6,40.6c.2,.9,.6,1.7,1.1,2.4,.1,.2,.3,.3,.5,.4,.2,.1,.4,.1,.6,.1,.7,0,1.2-.4,1.5-1.3l.5-1.8c4.5-13.8,9.7-30.9,15.8-51.3,.4-1.5,1.3-2.9,2.6-3.9,1.1-.9,2.4-1.4,3.8-1.5,.6,0,1.3-.2,1.8-.5,.3-.2,.5-.4,.7-.7s.2-.6,.2-.9c0-1.4-1-2-2.9-2-1.2,0-2.4,.2-3.6,.3-1.2,.2-2.3,.3-3.5,.3s-2.3-.1-3.5-.3c-.8-.2-1.5-.3-2.3-.3s-1.6,.2-2.3,.6c-.3,.2-.5,.4-.7,.7s-.2,.6-.2,.9,.1,.6,.2,.9c.2,.3,.4,.5,.6,.6,.6,.4,1.3,.7,2.1,.6,1.8,0,2.7,.8,2.7,2.3,0,.8-.2,1.6-.5,2.4l-11.2,36c-.2,.7-.4,1-.5,1l-.5-.9-14.4-43.3c-.4-1.2-.9-1.8-1.6-1.8-.2,0-.4,0-.5,.1-.2,.1-.3,.2-.4,.3-.3,.6-.5,1.2-.6,1.8l-12.8,42.5c-.2,.6-.3,.9-.5,.9-.1,0-.3-.3-.5-1-6-18.7-10.1-30.8-12.2-36.3-.3-.8-.6-1.7-.6-2.5,0-1,.8-1.5,2.3-1.5,2-.1,3-.8,3-2.1,0-.3-.1-.7-.3-1-.2-.3-.4-.5-.7-.7-.8-.4-1.6-.7-2.5-.6-.9,.1-1.8,.2-2.7,.4-1.3,.3-2.6,.4-3.9,.4-1.4,0-2.8-.1-4.1-.4-.9-.2-1.9-.3-2.8-.4-2,0-3,.7-3,2.2,0,.3,0,.6,.1,.8,.1,.2,.3,.4,.5,.6Z"/>
      <path class="cls-1" d="M139.3,96.5c-.5,.3-1,.5-1.6,.6-1.3,.2-2.1,.5-2.3,.8-.2,.3-.3,.6-.3,1,0,1.3,1,2,3.1,2,1.1,0,2.2-.1,3.3-.3,1.1-.2,2.2-.3,3.3-.3s2.3,.2,3.4,.4,2.2,.4,3.4,.4c1.7,0,2.5-.5,2.5-1.5,0-.5-.1-1-.4-1.3-.3-.4-1-.8-2.3-1.1s-2.1-.8-2.5-1.5-.6-1.4-.6-2.2V50c-.1-1.4,.2-2.9,.7-4.2,.2-.5,.6-.9,1-1.2s.9-.5,1.4-.6c.8-.1,1.5-.3,2.2-.7,.2-.2,.4-.4,.5-.7s.1-.5,.1-.8c0-1.2-.7-1.7-2-1.7-1.2,0-2.4,.2-3.6,.4s-2.4,.3-3.6,.4c-1.3,0-2.6-.2-3.9-.4s-2.6-.4-3.9-.4c-.5,0-.9,.1-1.3,.4-.2,.1-.3,.3-.4,.5s-.1,.4-.1,.6c0,.3,0,.6,.1,.8,.1,.3,.3,.5,.5,.7,.6,.4,1.3,.7,2,.9,.9,.2,1.7,.7,2.4,1.3,.6,.6,.9,1.7,.9,3.3v43.5c0,1.1-.2,2.2-.7,3.2-.5,.5-.8,.9-1.3,1.2Z"/>
      <path class="cls-1" d="M164.8,43.3c.5,.3,1.4,.5,2.9,.5,.5,0,1,.1,1.5,.3s.9,.5,1.2,.9c.7,.9,1.1,2.1,1.1,3.3v44.7c0,.6-.1,1.2-.3,1.8-.2,.6-.5,1.1-1,1.5-.9,.8-2.1,1.2-3.3,1.2-1.7,0-2.5,.6-2.5,1.7,0,1.3,.7,2,2.1,2,.5,0,1.5-.1,3.3-.4,1.2-.2,2.5-.3,3.7-.4,1.2,.1,2.3,.2,3.5,.4,1.3,.2,2.7,.3,4,.4,.9,0,1.5-.1,1.8-.4,.3-.3,.4-.7,.4-1.1,0-1.5-1.1-2.2-3.4-2.2-1-.1-2-.4-2.8-1-.5-.3-.9-.7-1.1-1.2-.3-.5-.4-1-.4-1.6V54.9c0-1.1,.2-1.6,.6-1.6,.3,0,.6,.2,1,.7l35,46.3c.4,.5,.8,1.1,1.3,1.5,.4,.3,.8,.4,1.2,.3,.8,0,1.1-.4,1.1-1.3-.1-1.3-.4-2.5-.9-3.7-.6-1.5-.9-3.7-.9-6.5V48.6c0-.8,.1-1.6,.2-2.4,.2-.7,.7-1.3,1.3-1.6,1-.5,2.1-.7,3.2-.6,1.7,0,2.5-.5,2.5-1.6,0-1.4-.8-2-2.5-2-1,0-2,.2-3,.4-1.1,.2-2.2,.3-3.3,.4-1.3-.1-2.6-.3-3.9-.5-1.9-.3-3.1-.5-3.4-.5-.6,0-1.3,.2-1.8,.6-.3,.2-.5,.4-.6,.7s-.2,.6-.2,.9,.1,.5,.3,.8c.2,.2,.4,.4,.6,.5,.7,.4,1.5,.5,2.3,.5,1.1,0,2.2,.3,3,1,.4,.3,.7,.8,.9,1.2,.2,.5,.3,1,.3,1.5v33.6c0,1.5-.3,2.3-.9,2.3-.3,0-.6-.2-.9-.6l-18.6-24.8c-6.9-9.3-11-14.6-12.2-15.9-1.2-1.3-2.2-2-3-2-.6,0-1.2,.1-1.7,.2-.6,.1-1.2,.2-1.8,.2-.8,0-1.7-.1-2.5-.2-.6-.1-1.3-.2-1.9-.2-1.4,0-2.1,.6-2.1,1.7,0,.3,0,.6,.2,.8s.2,.2,.4,.3Z"/>
      <path class="cls-1" d="M230.9,43.5c.7,.4,1.5,.6,2.4,.6,1.7,0,2.8,.2,3.4,.6,.6,.4,.9,1.2,1.1,2.5,.1,1.3,.2,4,.2,8.1v37.9c0,1.4-.3,2.4-.9,3.1-.6,.7-2,1-4,1-1.6,0-2.4,.6-2.4,1.7,0,.7,.4,1.2,1.3,1.6,.9,.4,2.5,.5,4.9,.5h34.2c1.4,0,2.2-.2,2.5-.5s.5-1.1,.5-2.2c0-.4,0-1.2-.1-2.3s-.1-2.2-.1-3.1c0-.8-.2-1.6-.6-2.3-.2-.3-.4-.5-.7-.6-.3-.2-.6-.2-.9-.2s-.7,.1-1,.3-.5,.4-.7,.7c-.5,.7-.8,1.6-.7,2.5,0,.5-.1,1-.3,1.5-.2,.5-.5,.9-.9,1.3-.4,.4-1,.7-1.5,.9-.6,.2-1.2,.3-1.8,.2h-14.6c-1.8,0-3-.2-3.7-.7s-1.1-1.4-1.1-2.8v-26.5c0-.4,.1-.7,.2-1,.2-.3,.4-.6,.7-.8,.8-.4,1.6-.6,2.5-.6h11.2c1-.1,2,.1,2.8,.6,.3,.3,.5,.6,.7,1,.1,.4,.2,.8,.2,1.2,0,.7,.2,1.5,.6,2.1,.2,.2,.4,.4,.6,.6,.3,.1,.5,.2,.8,.2s.6-.1,.8-.2,.5-.3,.7-.5,.4-.4,.5-.7,.2-.6,.2-.9c-.1-.7-.2-1.4-.4-2.1-.5-2-.5-4-.1-6,.2-.8,.2-1.7,.3-2.5,0-.3,0-.6-.1-.8-.1-.3-.2-.5-.4-.7-.2-.2-.4-.3-.6-.4-.2-.1-.5-.1-.8-.1-.5,0-1,.2-1.4,.5-.2,.1-.3,.3-.4,.5s-.2,.4-.2,.7c0,.9-.2,1.7-.7,2.4-.2,.3-.5,.6-.9,.8s-.8,.3-1.2,.3h-11.3c-1.7,0-2.9-.3-3.4-1-.6-.7-.8-2-.8-4v-8.8c-.1-.9,.2-1.7,.8-2.4,.5-.5,1.7-.8,3.7-.8h11.6c.6,0,1.3,.2,1.8,.5,.5,.4,1,1.2,1.5,2.5s.9,2.1,1.4,2.4c.4,.3,.9,.5,1.4,.5,.9,0,1.4-.5,1.4-1.6,0-1.7,0-3.4-.3-5.1-.1-.8-.4-1.6-.9-2.3-.4-.5-1.2-.8-2.5-.8h-32.6c-.7,0-1.3,.2-1.8,.6-.2,.2-.4,.4-.5,.6-.1,.2-.2,.5-.2,.8s.1,.6,.2,.8c0,.3,.2,.5,.4,.7Z"/>
      <path class="cls-1" d="M34,135.9c42.7,1.2,85.7,1.8,128.6,1.8,0,.2,.1,.3,.2,.5,2,2.2,1.8,13.9,.9,18.3-1,5-3.2,9.8-5.2,14.4-2.3,5.4-4.7,10.9-5.6,16.8-.8-.3-1.7-.5-2.7-.6-1.6-.2-3.3-.1-4.9,.4-1.1,.4-2.1,1.1-2.9,1.9-1.3-.6-2.6-.9-4-1l-1-.1c-4.7-.7-9-3.3-13-5.8-.1-.1-.3-.1-.5-.2-.2,0-.3,0-.5,.1s-.3,.2-.4,.3-.2,.3-.2,.5c-.3,3,.2,6,1.4,8.8-2.4-.4-4.6-2.1-6.7-3.7-1.3-1.1-2.7-2-4.2-2.8-3.8-2-7.5-1.9-11.5-1.8h-1.2c-5.9,.1-16.9,1.4-20.9,5.3-.1,.1-.2,.3-.3,.4-.1,.2-.1,.3,0,.5,0,.2,.1,.3,.2,.5,.1,.1,.2,.2,.4,.3,1,.4,1.9,.9,2.8,1.4-.6,.1-1.2,.2-1.7,.3l-.5,.1c-.1,0-.3,.1-.4,.2-.1,.1-.2,.2-.3,.3-.1,.1-.1,.3-.1,.4v.4c1.5,5.4,7.3,11.2,12.1,13.6,3.4,1.7,6.2,2.6,8.7,2.8,.9,0,1.8,0,2.6-.1,1-.1,1.9-.1,2.9,0-1.1,1.1-2.8,1.9-4.4,2.6-.6,.3-1.1,.5-1.6,.8-3.2,1.6-6.3,3.4-9.3,5.4-5.2,3.5-8.3,8.5-11.4,13.4-.7,1.1-1.4,2.3-2.2,3.4-.1,.2-.2,.4-.2,.6s.1,.4,.2,.6c.1,.2,.3,.3,.4,.4,.2,.1,.4,.1,.6,.1,.8-.1,1.6-.3,2.3-.6-.5,.5-1,1.1-1.6,1.6-2,1.9-3.9,4-5.4,6.4-2,3.2-2.9,6.2-3.8,9.4-.4,1.3-.8,2.7-1.3,4.2-.1,.2-.1,.5,0,.7s.2,.4,.4,.5c.2,.1,.4,.2,.7,.2,.2,0,.4-.1,.6-.3,2.6-2.6,6.2-6.1,10.1-7.6,2.2-.8,4.5-.7,6.9-.7,1.6,.1,3.1,0,4.7-.1,6.1-.6,12-2.8,17.1-6.2-1.2,1.7-2.7,3.3-4.3,4.6-.4,.3-.7,.7-1,1-6.4,6.2-9.9,12-10.3,17.2,0,.2,0,.3,.1,.5s.2,.3,.3,.4c.1,.1,.3,.2,.4,.2h.5c1-.3,1.9-.7,2.7-1.2l.2-.1-.6,.8c-.7,.9-1.4,1.9-1.9,3-1.6,3.7-1.4,7.7-1.2,11.5l.1,1.4c.3,8.1,.4,15.4-.9,22.8,0,.2,0,.5,.1,.7s.3,.4,.5,.4c.1,.1,.3,.1,.4,.1,.2,0,.3,0,.5-.1,.1-.1,.3-.2,.4-.3,.9-1.3,1.9-2.6,2.8-3.9,3.3-4.7,6.8-9.6,10.9-12.7,1.1-.8,2.1-1.5,3.2-2.2,3.2-2.2,6.2-4.2,8.7-7.4-.2,2-.5,4-1,5.9-.1,.2,0,.5,.1,.7s.3,.4,.5,.5,.5,.1,.7,.1c.2-.1,.4-.2,.6-.4,1.2-1.5,2.4-2.9,3.8-4.2,2.9-2.9,6.1-6.2,6.9-10,1,1.2,2.3,2.2,3.7,2.9,1.6,.9,3.5,1.3,5.3,1.4-1,2.9-1,6,0,8.9,.5,1.6,1.2,3.1,2.2,4.5-.2,.5-.3,1-.4,1.5-1.1,5.4,0,10.6,3,13.8,1.1,1.2,2.5,2.1,4,2.7,1.5,.6,3.1,.9,4.7,.9,1,0,2-.1,2.9-.3,2-.5,3.9-1.5,5.5-2.8s3-2.9,3.9-4.8c.7-1.3,1.2-2.7,1.5-4.1,.8,.2,1.7,.2,2.6,.2,.4,0,.8,0,1.2-.1,1.8-.2,3.5-.9,5.1-1.9,1.5-1,2.8-2.3,3.7-3.9,1.8-3.1,2.5-6.7,1.9-10.3-.3-2.2-1.1-4.2-2.4-6,1.5-.7,2.9-1.7,4.1-3,1.1-1.3,2-2.7,2.5-4.3,.5-1.7,.8-3.4,.7-5.1-.1-2.4-.6-5.9-2.9-8.6-1.3-1.5-2.9-2.6-4.8-3.1,1.8-1,3.3-2.4,4.3-4.3,1.3-2.5,1.9-5.3,1.5-8.1,3.5,5.6,8.4,11.2,15,14.3-1.2,.6-2.4,1.4-3.5,2.2-.6,.4-1.1,.9-1.7,1.2-1.9,1.1-3.6,2.7-4.7,4.6-1.1,1.9-1.7,4.1-1.7,6.4-.1,5.8,3.4,9.1,6.8,12.4,.8,.7,1.5,1.5,2.2,2.2,.1,.1,.3,.2,.5,.3s.4,0,.6,0c.2-.1,.3-.2,.5-.3,.1-.1,.2-.3,.2-.5,.2-1.5,.6-2.9,1.2-4.3,1.2,.7,2.2,1.5,3.1,2.5,.1,.1,.3,.3,.5,.3,.2,.1,.4,0,.6,0,.2-.1,.4-.2,.5-.3,.1-.2,.2-.3,.2-.5,0-.3,.1-.7,.1-1.2,.3-5.7,1-6.5,1.3-6.6,.4,.1,2.5,1.9,3.4,2.7,.5,.5,1.1,1,1.7,1.4,2.8,1.8,8.2,4.5,13.5,2.8,.1,0,.3-.1,.4-.2,.1-.1,.2-.2,.3-.3,.1-.1,.1-.3,.1-.4v-.4c-.4-.9-.9-1.8-1.5-2.5-.5-.6-.9-1.2-1.2-1.8-.4-1-.7-2-.9-3-.1-.5-.3-1.1-.4-1.6l.5,.1c1.5,.4,3.2,.8,4.9,.1,.1-.1,.3-.1,.4-.2,.1-.1,.2-.2,.2-.4,0-.1,.1-.3,.1-.4s0-.3-.1-.4c-.2-.5-.5-1-.7-1.5s-.5-1-.7-1.6c2.6,.2,5.3-.1,7.8-.7,1.3-.3,2.6-.8,3.9-1.2,2.4-.8,4.9-1.7,7.3-1.7,.2,0,.4-.1,.6-.2,.2-.1,.3-.3,.4-.5s.1-.4,0-.6c-.1-.2-.2-.4-.4-.5h-.1c-.9-.6-1.8-1.4-2.8-2.2-3.5-3-7.7-6.5-12.3-6.5,.1-.2,.1-.5,.1-.7s-.1-.3-.2-.4c-.1-.1-.3-.2-.4-.3-1.9-.6-4-.8-6-.7,1.5-.9,2.8-2,3.9-3.4,2.8-3.6,4.4-4.4,8.7-6.5,.2-.1,.3-.2,.4-.3s.2-.3,.2-.5c0-.3,0-.5-.2-.8,0-.1-.1-.1-.1-.2-4.9-4.2-13.5-4.7-19.6-2.7,.3-.5,.6-1,.9-1.4l.3-.4c.1-.2,.2-.4,.1-.7,0-.2-.1-.4-.3-.6-.2-.2-.4-.3-.7-.3v-.4c-.1-.1-.2-.2-.3-.2,0-.1,.1-.2,.1-.2,.1-.2,.2-.4,.2-.6s-.1-.4-.2-.6c-.1-.2-.3-.3-.5-.4-.2-.1-.4-.1-.6,0-2.1,.5-4,1.4-5.7,2.8-1.1-3.8-2.6-7.4-4.5-10.8l-.1-.1c-.1-.2-.3-.3-.5-.4-.2-.1-.4-.1-.6,0s-.4,.2-.5,.4-.2,.4-.2,.6c-1.1,1.9-2.3,3.6-3.6,5.4-.7,1.1-1.3,1.9-1.5,2.2-1.7,2.9-3,6.1-3.8,9.4-.5,2.3-.5,4.7,.1,6.9s1.5,4.4,2.9,6.3c-6-3.7-10.4-9.7-13.4-15.3,1.9-.7,3.6-1.9,5-3.4s2.4-3.3,3-5.2c.6-2.3,.8-4.7,.4-7-.3-2.3-1.2-4.6-2.4-6.6-.4-.7-1-1.4-1.7-1.8,2-2.5,3-5.7,2.8-8.9s-1.7-6.2-4-8.4c-.9-.8-1.8-1.5-2.8-2-1.5-1-3.2-1.6-5-1.9-1-.1-2-.1-3,.2-.9-1.7-2.1-3.1-3.6-4.3-1.5-1.1-3.2-1.9-5.1-2.3-2.7-.5-5.4,0-7.7,1.4,.7-3.6,1.8-7.1,2.9-10.5,.9-2.9,1.8-5.9,2.5-8.9,.4-1.6,.8-3,1.2-4.4,.8-2.9,1.6-5.6,1.6-8.3,.3,.5,.6,.9,.8,1.4,4.3,6.7,9.3,12.9,14.8,18.6,5.6,5.8,10.5,9.8,15.6,12.7,4.1,2.4,7.8,3.8,11.5,4.2,3,.4,6,.1,8.8-.8s5.5-2.4,7.6-4.4c2.2-2.1,3.8-4.6,4.7-7.5,.9-2.9,1.1-5.9,.6-8.9-1.3-6-6.2-11-12-12.2-1.6-.4-3.3-.4-4.9-.1-1.6,.3-3.1,1-4.5,1.9-1.4,1-2.4,2.4-3,4s-.7,3.4-.3,5c.8,2.6,2.9,4.5,4.6,6.1,.1,.1,.2,.2,.3,.2s.3,.1,.4,.1,.3,0,.4-.1,.2-.1,.3-.2c.1-.1,.2-.2,.2-.3s.1-.3,.1-.4,0-.3-.1-.4c-.1-.1-.1-.2-.2-.3-1.9-1.7-3.4-3.2-4-5.1-.7-2.3,.4-5.2,2.6-6.8,1.1-.8,2.4-1.3,3.7-1.5,1.3-.2,2.7-.2,4,.1,5,1,9.3,5.4,10.4,10.6,.5,2.6,.3,5.3-.5,7.8s-2.3,4.8-4.2,6.6c-2,1.8-4.3,3.2-6.9,4s-5.3,1-7.9,.7c-3.3-.4-6.8-1.7-10.7-3.9-4.9-2.8-9.7-6.8-15.1-12.4-5.5-5.6-10.3-11.7-14.6-18.2-2.7-4.2-5.8-9.8-6.2-16,38.5-.1,77-.6,115.2-1.8-82.6-3.3-165.8-3.2-248-.9Zm164.3,144.1l-.6-.6c-3.4-3.2-6.2-6-6.2-10.9h0c.1-4.1,1.8-7.1,5.4-9.3,.6-.3,1.2-.8,1.8-1.3,1.7-1.2,3.5-2.6,5.1-2.4,1.2,2.8,.3,6.1-.4,7.8-.6,1.5-1.4,3-2.2,4.4-.7,1.2-1.4,2.5-2,3.8-.8,2.4-1.7,5.6-.9,8.5Zm15.6-5.3h0c-.3-.1-.9-.7-1.5-1.2-2.5-2.2-4.1-3.5-5.4-3.1-1.9,.6-2.4,3.9-2.6,7.4-.9-.8-2-1.4-3.2-1.8-.2-.1-.5-.1-.7,0s-.4,.3-.5,.5c-.4,.8-.7,1.6-.9,2.4-.3-2.3,.1-4.7,1.2-6.8,.6-1.3,1.3-2.5,1.9-3.7,.9-1.5,1.6-3,2.3-4.5,.7-1.7,1.5-4.8,.7-7.7,1.5,1.3,3.3,2.2,5.3,2.4,2.1,1.1,3.3,3.4,3.8,4.8,.5,1.1,.8,2.3,1.1,3.5,.4,1.4,.8,2.7,1.4,4,1.2,2.8,3.2,5.2,5.8,6.9-3.5-.1-6.8-1.8-8.7-3.1Zm9.9-7.6h0c-.8-.2-1.6-.3-2.4-.4-.2,0-.3,0-.5,.1s-.3,.2-.4,.3-.2,.3-.2,.5,0,.4,.1,.5c.4,1,.7,2,.9,3,.2,1.2,.6,2.3,1.1,3.4,.4,.8,.9,1.5,1.5,2.2,.2,.3,.5,.6,.7,.9h-.1c-2.9-1.6-5.2-4.2-6.6-7.2-.5-1.3-1-2.6-1.3-3.9-.3-1.2-.7-2.4-1.2-3.5-.4-.9-.8-1.8-1.4-2.6-.2-.3-.4-.5-.6-.7l3.4,1.5c1,.4,1.9,.9,2.8,1.4,1,.6,1.9,1.2,2.8,1.9l4,3s0,.1,.1,.1c-1-.1-1.9-.2-2.7-.5Zm14.5-6.2h0c-1.3,.5-2.5,.9-3.7,1.2-3,.7-6.1,.8-9.2,.5-.2,0-.4,0-.6,.1s-.3,.3-.4,.4c-.1,.2-.1,.4-.1,.6s.1,.4,.3,.6c.3,.3,.5,.7,.7,1.1l-2.4-1.8c-.9-.7-1.9-1.4-2.9-2-1-.5-1.9-1-2.9-1.4l-3.2-1.4c1.8-.1,3.5-.3,5.2-.6,1.9-.3,3.8-.5,5.8-.6,2.4,.1,4.9,.3,7.2,.8l9,1.6c-.9,.3-1.9,.6-2.8,.9Zm-10.6-9.6c.2,0,.4,.1,.6,.1-.1,.2-.2,.4-.2,.6s0,.4,.1,.6c.2,.2,.4,.3,.7,.4,.3,0,.6,0,.8-.2,4.6-1.3,9.1,2.5,13,5.8l.9,.7h0l-11.2-2c-2.4-.5-4.9-.8-7.4-.8-2,.1-4,.3-5.9,.6-2,.4-4,.5-6.1,.6,2-.5,3.9-1.3,5.7-2.3,.5-.3,1.1-.6,1.6-1,.6-.4,1.3-.8,1.9-1.2,1.2-.6,2.4-1.2,3.6-1.6,.5-.2,1.2-.3,1.9-.3Zm-.2-7.6h0c-2.1,2.8-5.4,4.1-8.6,5.2-.2,.1-.4,.2-.6,.5-.1,.2-.2,.5-.1,.7s.2,.5,.4,.6c.2,.1,.5,.2,.7,.2l1.2-.1c2-.2,3.9-.3,5.9-.3-.4,.1-.7,.2-1,.3-1.3,.4-2.6,1-3.8,1.6-.7,.4-1.3,.8-2,1.2-.5,.3-1,.6-1.5,.9-2.3,1.4-4.9,2.3-7.6,2.7-.1,0-.2,.1-.2,.1-.2-.1-.3-.2-.5-.2h-.2c-.1,0-.1,.1-.2,.1-1.4-.4-2.7-1.2-3.7-2.2,.1-.2,.1-.4,0-.6,2.1-.8,3.8-2.2,5.1-4,.6-.8,1.1-1.6,1.7-2.4,.8-1.2,1.7-2.4,2.6-3.5,3.9-4.2,10.1-5.6,15.1-6.8,1.8-.4,3.5-.7,4.9-.2-3.2,1.5-5.7,3.6-7.6,6.2Zm-11.9-7.7c0,.1,.1,.3,.2,.4,.1,.1,.1,.2,.2,.2,.2,.1,.3,.2,.5,.2s.4,0,.5-.1c4.4-2.1,11.3-2.5,16.4-.5h0c-1.3,0-2.5,.2-3.8,.5-5.1,1.2-11.5,2.6-15.6,7.1-1,1.1-1.9,2.3-2.7,3.6-.5,.8-1,1.6-1.6,2.3-1.1,1.5-2.5,2.7-4.2,3.5,.9-1.9,1.3-4,1.2-6.2,1.1-5.5,4.1-10.4,8.4-13.9,.1,.2,.1,.3,.3,.4,.2,.2,.4,.2,.7,.2-.3,.5-.4,1.1-.6,1.7,.1,.4,.1,.5,.1,.6Zm-8.7-12.1c1.4,3,2.6,6.1,3.5,9.4,.1,.2,.2,.3,.3,.4,.1,.1,.3,.2,.5,.3h.5c.2-.1,.3-.2,.5-.3,1-1.1,2.3-2,3.7-2.6l-.2,.7v.1c-4.1,3.1-7.2,7.4-8.9,12.2v-.3c-.2-1.5-.6-3.1-.9-4.5-.5-2.1-.9-4.2-1.1-6.4-.4-3.7,.4-6.9,2.1-9Zm-8.3,14.3c.8-3.1,2-6.1,3.6-8.8,.1-.3,.7-1.1,1.4-2.1l1.1-1.6c-.9,2.3-1.2,4.7-1,7.1,.2,2.2,.6,4.4,1.1,6.5,.3,1.5,.6,3,.9,4.5,.2,1.1,.2,2.2,.2,3.3-.2,.7-.3,1.5-.3,2.2v.2c0,.1,.1,.1,.1,.2-.2,1.2-.6,2.4-1.2,3.5l-.2-.2c-3.5-2.9-7.2-7.9-5.7-14.8Zm-52.4-48.8c1.3-.4,2.6-.5,3.9-.3,.9,0,1.8,.3,2.5,.7,.6,.5,1.2,1.1,1.5,1.9,.8,1.4,1.6,2.8,2.2,4.3-.3,1.8-.5,3.6-.6,5.4-.7-.1-1.5-.2-2.2-.2-1.6,.1-3.2,.6-4.6,1.5-.8-1.6-2.4-3-4.8-4-1.1-.5-2.3-.8-3.5-.9,0-1.7,.5-3.4,1.5-4.9,1.1-1.5,2.4-2.8,4.1-3.5Zm18.6,24c-.1-1.2-.3-2.5-.6-3.6,.8-1,1.8-1.7,2.9-2.3,1.1-.5,2.4-.8,3.6-.9,.5-.1,1.1,.1,1.5,.4l.1,.1c.6,2.2,1.8,4.2,3.4,5.8,.7,.7,1.5,1.2,2.3,1.7h0c.2,.7,.5,1.4,.6,2.1,1,3.4,.8,7.1-.5,10.4-.6,1.6-1.7,3-3,4.1s-2.9,1.9-4.5,2.3c-3.4,.7-7-1-8.4-3.8,.1-2.1-.3-4.1-1-6.1h0c1.2-1.4,2.2-3,2.8-4.7,.7-1.9,1-3.7,.8-5.5Zm-2.7,4.9c-.6,1.5-1.5,2.9-2.6,4.1-.1,0-.1,.1-.1,.1-1.3,1.2-2.9,1.9-4.6,2-4.8,.2-8.8-4.3-9.1-10.2-.3-5.9,3.3-10.8,8-11h.3c3.4,0,6.5,2.6,7.9,6.3h0c0,.2,.1,.4,.2,.6,.4,1.1,.6,2.2,.6,3.3,.2,1.6,0,3.3-.6,4.8Zm3.8,42.8c-1.2,.2-2.3,0-3.4-.3-1.1-.4-2.1-1-2.9-1.9-.8-.8-1.4-1.9-1.8-3-.9-2.6-.8-5.4,.1-8s2.6-4.8,4.9-6.3c1.3-.8,2.8-1.3,4.3-1.3,.8,0,1.6,.1,2.3,.4,1.1,.4,2.1,1.1,2.9,1.9,.8,.8,1.4,1.9,1.8,3,.9,2.6,.9,5.4-.1,8-.9,2.6-2.6,4.8-4.9,6.3-.9,.6-2,1-3.2,1.2Zm3.7,8.2c.3,5.8-3.3,10.8-8,11-1,0-2-.1-3-.5-.9-.4-1.8-.9-2.5-1.6-2.2-2.1-3.5-5-3.6-8.1-.2-4.6,2-8.8,5.4-10.3,1.1,1.3,2.4,2.2,4,2.8,1,.3,2,.5,3,.5,.8,0,1.7-.1,2.5-.3,1.3,1.9,2.1,4.2,2.2,6.5Zm-13.6-22.1c-1.1,3-1.1,6.3,0,9.4,.2,.5,.5,1.1,.8,1.6-1.4,.7-2.6,1.7-3.5,2.9-.2,0-.4,0-.6,.1-.5,.3-1.2,.5-1.8,.6-.6,.1-1.3,0-1.9-.2-1.4-.4-2.6-1.1-3.7-2.1-1.3-.9-2.3-2.2-3.1-3.6-.5-1.1-.7-2.3-.7-3.6,0-1.2,.3-2.4,.8-3.5,1-2.3,2.3-4.4,3.9-6.2,.6,.4,1.2,.6,1.9,.8,.4,.1,.8,.1,1.2,.1,.6,0,1.2-.1,1.8-.2,2.3-.3,4.5-1.1,6.5-2.2,.4,.4,.7,.9,1,1.4-1.1,1.4-2.1,3-2.6,4.7Zm-16.4,7.1c-2.2,0-4.3-1.7-5.3-3.5-1.4-2.6-1.1-5.7-.7-7.9,.3-1.9,1.1-3.6,2.2-5.1,1.1-1.4,2.6-2.4,4.4-2.7h.1c.8,2.5,2.2,4.7,4.2,6.4-1.8,2-3.2,4.3-4.2,6.7-.8,1.9-1.1,4-.7,6.1Zm-14.2-23.4c-.5-1.7-.8-3.4-.8-5.2,.1-2.4,1.2-4.7,3-6.4h.1c1.6,0,3.1-.5,4.5-1.3,1.3,2.3,3.2,4.3,5.5,5.7,1,.6,2,1,3.1,1.3-.9,2-1.3,4.1-1.2,6.2,0,.6,.1,1.3,.2,1.9-2.2,.4-4.2,1.7-5.6,3.5-.4,.5-.7,1-1,1.5h-.3c-1.8,.7-3.8-.3-5-1.5h0c-1.2-1.6-1.9-3.7-2.5-5.7Zm18.2-16.5c.1,1.8,.5,3.6,1.3,5.3-.1,0-.2,.1-.3,.1-1,.9-1.9,2-2.7,3.1-1.1-.1-2.2-.5-3.1-1.1-2.5-1.5-4.4-3.7-5.5-6.4s-1.3-5.6-.7-8.4c.3-1.4,.9-2.8,1.8-3.9,1-1.3,2.3-2.3,3.8-2.9,.7-.3,1.5-.4,2.3-.4h0c1,.1,2,.3,2.9,.8,2.2,.9,3.5,2.1,3.9,3.4-1.3,1.4-2.3,3-3,4.8-.6,1.8-.9,3.7-.7,5.6Zm-10.8-12.5c-1,1.4-1.8,3-2.1,4.7-.7,3.1-.5,6.4,.7,9.4-.8,.6-1.8,1-2.8,1.1s-2,0-3-.3c-1.1-.4-2-1.1-2.8-1.9-.8-.8-1.4-1.8-1.8-2.8-.8-2.2-.9-4.6-.2-6.9,.2-.9,.6-1.8,1.1-2.6,1-1.4,2.4-2.5,4-3.1,1.7-.6,3.5-.9,5.3-.8,1.8,0,3.1,.4,3.9,1.1-1,.6-1.7,1.3-2.3,2.1Zm25.5,36c-1.4,1.8-3.8,2.9-7.5,3.5-.8,.2-1.5,.2-2.3,.1-.7-.2-1.4-.5-2-1-1.4-1.1-2.6-2.5-3.5-4.1-.8-1.6-1.3-3.4-1.4-5.2s.3-3.6,1-5.3,1.8-3.1,3.1-4.3c2,3.1,5.1,5,8.5,5h.4c1.7-.1,3.4-.7,4.8-1.7,.5,1.9,.7,3.9,.6,5.8,.1,2.6-.2,5.3-1.7,7.2Zm-21-47.6c.3,.1,.7,.1,1.1,.1,1,.1,1.9,.3,2.8,.6-.2,.3-.4,.5-.6,.9-.5,.9-1,1.8-1.3,2.7-2.9-.2-5.7-1.2-8-2.9-2-1.6-3.8-3.5-5-5.8,3.3,2.1,7,3.9,11,4.4Zm-24.7-3c1.4,.8,2.7,1.7,3.9,2.6,2.3,1.7,4.6,3.5,7.4,4,.1,.1,.2,.1,.4,.2,.6,.1,1.9-.2,2.3-1,.1-.3,.1-.6,.1-.9s-.1-.6-.3-.9c-.8-1.7-1.3-3.6-1.4-5.5,1.4,2.6,3.3,4.9,5.7,6.7,2.4,1.8,5.3,2.9,8.3,3.1-.2,.8-.3,1.6-.2,2.4-.4,.1-.8,.2-1.2,.3-.2,.1-.5,.2-.7,.3-1.2-1.3-3.1-2-5.7-2.1-2-.1-3.9,.2-5.8,.9-2.6-2.1-5.7-3.6-9-4.3-.8-.2-1.6-.3-2.4-.4-.8-.1-1.8-.3-2.8-.5-1.6-.3-3.2-1.1-4.4-2.2-.4-.5-.9-1-1.2-1.6-.3-.4-.6-.9-.9-1.3-.5-.6-1.1-1.1-1.7-1.5,3.4,.1,6.5,.1,9.6,1.7Zm-30.1,2.3c4.3-2.7,13.4-3.6,18.1-3.8v.3c0,.1,.1,.1,.1,.2,.1,0,.1,.1,.2,.1h.2c1.2-.1,2.3,1,2.7,1.5,.4,.5,.6,.8,.9,1.2,.4,.6,.8,1.2,1.3,1.7,1.3,1.3,3,2.1,4.9,2.5,.9,.2,1.9,.4,2.8,.5,.8,.1,1.6,.2,2.4,.4,3,.6,5.8,1.9,8.2,3.8-1.3,.6-2.4,1.5-3.4,2.5-3.5,.3-7,.5-10.4,0-4.2-.6-8.1-2.3-12-4-3.8-1.7-7.6-3.3-11.7-3.9-.1-.2-.2-.4-.3-.5-1.3-.9-2.6-1.8-4-2.5Zm9.4,31h0c2.9-1.9,6-3.7,9.1-5.3,.5-.2,1-.5,1.5-.7,2.3-1,5.1-2.3,6.1-4.6,.1-.1,.1-.3,.1-.4s0-.3-.1-.4c-.1-.3-.3-.5-.5-.6-1.7-.8-3.5-.6-5.1-.5-.8,.1-1.5,.1-2.3,.1-2.2-.2-4.7-1-7.9-2.6-4-2-8.9-6.7-10.6-11.2,1.2-.3,2.4-.4,3.6-.4,.1,0,.3,0,.4-.1s.2-.2,.3-.3c4,.7,7.8,2.3,11.5,3.9,3.9,1.7,7.9,3.4,12.2,4.1,1.5,.2,3,.3,4.5,.3,1.8,0,3.5-.1,5.3-.3-.6,1-1,2-1.3,3.1-.8,2.7-.7,5.5,.3,8.2,.5,1.3,1.3,2.5,2.3,3.6,1,1,2.2,1.8,3.5,2.3h.1c-.9,.8-1.9,1.6-2.9,2.3h-.1c-4.2,1.6-8.8,1.8-13.2,.8-.7-.2-1.3-.4-2-.6-1-.3-2-.6-3.1-.8-4-.7-8.2,0-11.8,1.8-2.2,1.1-4.3,2.5-6.1,4.1,1.8-2.2,3.9-4.2,6.2-5.8Zm-16.6,25h0c1.5-2.2,3.2-4.2,5.1-6,1.4-1.3,2.7-2.7,3.9-4.2,.1-.1,.2-.3,.2-.5s0-.4-.1-.5c-.1-.2-.2-.3-.4-.4s-.3-.2-.5-.2c-1,0-2.1,.2-3,.6l.7-1.1c.6-1,1.3-2,1.9-3q.1,0,.2-.1c2.6-2.9,5.7-5.3,9.1-7s7.3-2.3,11.1-1.7c1,.2,2,.5,3,.8,.7,.2,1.4,.4,2.1,.6,3.6,.9,7.4,.9,11.1,0-5.4,3.6-11.4,6.3-17.2,8.9-1.8,.8-3.7,1.7-5.5,2.5-8.8,4.2-19.6,10.2-25.2,20.2,.8-3,1.6-5.9,3.5-8.9Zm8.8,3.2h0c-1.6,.1-3.1,.4-4.6,.9h0c-2.1,.8-4,2-5.7,3.4,5.7-8.6,15.5-14,23.6-17.8,1.8-.8,3.6-1.7,5.4-2.5,3.9-1.8,7.9-3.6,11.7-5.6-3.9,5.6-9.7,10.4-17.3,14.2-1,.5-2,1-3.1,1.5-3.5,1.5-7.1,3.2-10,5.9Zm11.5,16.9c1-4.3,4.2-9,9.4-14h0c.3-.3,.6-.6,1-.9,2.5-2.3,5.8-5.5,6-8.9,0-.2,0-.4-.1-.6-.1-.2-.2-.3-.4-.4-.2-.1-.4-.1-.6-.1s-.4,.1-.5,.2c-6.2,4.7-11.6,6.9-18.8,7.8-1.5,.1-2.9,.2-4.4,.1h-1.5c2.7-2.1,5.8-3.7,8.9-5.1,1-.5,2.1-1,3.1-1.5,8.5-4.2,14.8-9.7,18.7-16.2,2.5-1.4,5-3.1,7.3-4.9-.7,1.4-1.1,2.8-1.1,4.3,0,2,.2,4,.8,5.9,.6,2.3,1.4,4.6,3.1,6.5,1,1.1,2.2,1.9,3.6,2.2-1.9,1.9-4.2,3.4-6.7,4.5-1.7,.7-3.4,1.3-5.2,1.7-1.1,.3-2.2,.6-3.2,1-3.8,1.3-7.4,3.3-10.6,5.7-1.9,1.4-3.5,3-4.8,4.9-.8,1.3-1.5,2.7-2.2,4.1-.5,1.3-1.1,2.5-1.8,3.7Zm0,37c.7-6.2,.6-12.3,.3-19l-.1-1.4c-.2-3.6-.3-7.4,1.1-10.6,.4-.9,1-1.8,1.6-2.5,.9-1.1,1.6-2.4,2.1-3.7v-.5c0-.2-.1-.3-.2-.4-.1-.1-.2-.2-.4-.3-.2-.1-.3-.1-.5-.1-.8,.1-1.5,.3-2.2,.7,.4-.7,.7-1.5,1.1-2.3,.6-1.4,1.3-2.7,2.1-4,1.3-1.8,2.8-3.4,4.6-4.6,3.1-2.4,6.6-4.3,10.4-5.6,1.1-.4,2.1-.7,3.2-1,1.8-.5,3.6-1.1,5.3-1.8,2.8-1.2,5.4-3,7.5-5.3h.5c-3.4,6.1-7.9,11.6-12.2,16.9-2.6,3.2-5.2,6.4-7.6,9.8-7.6,10.7-13.2,22.8-16.5,35.5q-.1,.1-.1,.2Zm4.7-6.6c-1,1.3-2,2.7-3,4h0c3.3-11.7,8.6-22.6,15.7-32.5,1.4-2,2.9-3.9,4.5-5.9-1.7,3.2-3.2,6.5-4.5,9.8-.5,1.4-1,2.8-1.4,4.2-1.1,3.4-2.2,6.9-4.1,10-.9,1.4-2,2.8-3,4.1-1.6,2-3,4.1-4.2,6.3Zm22.1-19.6c-.1-.2-.3-.3-.6-.4-.2-.1-.5,0-.7,.1s-.4,.3-.5,.5c-2.4,4.8-6,7.2-10.1,10.1-1.1,.7-2.2,1.5-3.2,2.3-.8,.6-1.6,1.3-2.4,2l.4-.5c1.1-1.4,2.1-2.8,3.1-4.2,2-3.2,3.1-6.8,4.2-10.2,.4-1.4,.9-2.8,1.4-4.2,1.8-5,4.4-9.7,6.8-14.3v-.1l2.5-3.1c-.8,3-1,6.2-.5,9.3,.1,1.1,.3,2.2,.5,3.3,.5,3.3,1.1,6.8,.5,10.1-.3,1.7-.8,3.4-1.5,5,.2-1.7,.3-3.4,.3-5.1,0-.2-.1-.4-.2-.6Zm1.2,5.6l-.3,.3c.7-1.6,1.2-3.3,1.5-5,.6-3.5,0-7-.5-10.4-.2-1.1-.3-2.2-.5-3.3-.7-5.6,.1-9.9,2.5-12.6,.1-.1,.1-.2,.1-.2v-.3c1.8-2.4,3.5-4.9,5.1-7.5-.5,2.4-.6,5.8,1,8.7,.4,.7,.9,1.4,1.5,2-2.5,2.9-3.5,6.8-4.1,10.6-.3,1.5-.4,3-.2,4.5,.1,.6,.3,1.3,.5,1.9,0,.1-.1,.3,0,.4h0c.3,4-3.2,7.5-6.6,10.9Zm13.1-7.5c-2.7-1.4-4.6-3.6-4.9-6h0c-.1-1.3,0-2.6,.2-3.9,.6-3.5,1.4-7.1,3.6-9.6,1.2,.8,2.6,1.2,4.1,1.2h.5c.1,.2,.1,.4,.2,.5,.9,1.7,2.1,3.2,3.6,4.3,1.3,1.1,2.8,2,4.4,2.4,.7,.2,1.3,.3,2,.3,.4,0,.8,0,1.2-.1-.8,1.8-1.2,3.7-1.2,5.7-.1,.1-.2,.2-.3,.4-.6,1.1-1.4,2-2.4,2.7-1.6,1.4-3.1,2.6-4.9,3-2.1,.5-4.3,.2-6.1-.9Zm6.3,11.5h0c-1-3.2-.8-6.3,.5-8.6,2.1-.6,3.8-1.9,5.6-3.4,.6-.5,1.1-1,1.6-1.5,.5,2.8,1.9,5.3,4,7.2,1.4,1.3,3,2.1,4.9,2.5,.2,1.5,.1,3-.3,4.5s-1.1,2.8-2.1,4c-.8,1.1-1.8,2-3,2.6-1.1,.4-2.4,.6-3.6,.4-1.2-.2-2.4-.6-3.3-1.4-1.2-.9-2.2-2-3-3.3-.6-1-1-2-1.3-3Zm22.2,15.1h0c-.9,1.6-2,3-3.4,4.1s-3,1.9-4.8,2.4c-1.7,.4-3.5,.4-5.2-.1s-3.3-1.4-4.5-2.6c-2.6-2.7-3.5-7.2-2.5-11.9,.4,.3,.7,.6,1.2,.9,1.6,1.1,3.6,1.8,5.6,1.8,1.1,0,2.3-.2,3.3-.7,1.5-.7,2.8-1.8,3.9-3.2q.1-.1,.1-.2c.7,1.5,1.8,2.8,3.2,3.7,1.3,.9,2.8,1.7,4.4,2.1-.3,1.3-.7,2.6-1.3,3.7Zm15.8-18.6h0c.5,3-.1,6.2-1.7,8.8-.8,1.3-1.8,2.4-3.1,3.2-1.3,.8-2.7,1.4-4.2,1.6-1.1,.1-2.1,0-3.2-.2l-2-.5c-1.3-.4-2.5-1-3.6-1.7-1.4-1-2.4-2.4-2.9-4.1,0-.1-.1-.1-.1-.2,1.2-2.2,1.6-4.7,1.3-7.1h.1c4-.2,7.4-3.1,9-7.1,1.4,1.3,3.3,2.1,5.3,2h.7c.7,0,1.3-.2,2-.3,1.3,1.7,2.1,3.6,2.4,5.6Zm2.5-25.9h0c1.9,2.2,2.3,5.2,2.4,7.3,.1,1.5-.1,3-.6,4.4-.5,1.5-1.4,2.9-2.5,4s-2.5,1.9-4.1,2.4h-.2c-.7,.2-1.4,.4-2.1,.4-1.6,.1-3.8-.3-4.9-1.8-.1-.1-.2-.2-.3-.3,.3-1.3,.4-2.6,.3-3.9-.1-2.6-.9-5-2.3-7.2,.3-.2,.6-.3,1-.5,2.7-1.7,4.8-4.3,5.8-7.4,0-.1,0-.2,.1-.3,1.4-.2,2.8,0,4,.5,1.3,.5,2.5,1.3,3.4,2.4Zm-.7-9.7h0c-.5,.9-1.2,1.8-2,2.5s-1.8,1.2-2.9,1.4c-.2,0-.4,.1-.5,.3-.1,.1-.2,.3-.3,.5h-.4c.4-2.3,.2-4.7-.6-6.9-.4-1.4-1.2-2.7-2.2-3.7-1-1.1-2.3-1.9-3.7-2.3-1.4-.5-2.9-.6-4.3-.5-1.5,.2-2.9,.7-4.1,1.5-.6,.4-1.1,.8-1.6,1.2-.3-.4-.6-.8-.9-1.1,.2-.2,.4-.5,.7-.7,1.3-1.9,2.1-4.1,2.2-6.4,1.9,1.8,4.4,2.9,7.1,2.8,.6,0,1.3-.1,1.9-.2,2.5-.5,4.8-1.8,6.5-3.7,.9,.2,1.8,.6,2.4,1.2,2.1,1.6,3.5,4,4,6.5s0,5.3-1.3,7.6Zm9.7-26.6c.3,2,.2,4.1-.4,6.1-.6,1.9-1.6,3.6-3,4.9-1.4,1.3-3.2,2.3-5.1,2.8-.7-1.1-1.6-2.1-2.6-2.9-.7-.6-1.5-1.1-2.4-1.4,.5-.7,.8-1.4,1.2-2.1,1.5-3.7,1.7-7.9,.6-11.7-.1-.2-.1-.4-.2-.6,.7,.2,1.5,.3,2.3,.3s1.7-.1,2.5-.4c1.2-.4,2.3-1,3.2-1.8l.3-.3h0c.4,0,1,.5,1.5,1.3,1,1.8,1.8,3.7,2.1,5.8Zm-12.4-27.8h0c.3,0,.6,0,.9,.1,1.5,.2,2.9,.8,4.2,1.6,.9,.5,1.7,1.1,2.4,1.8,1.1,1,2,2.3,2.6,3.7s.9,2.9,.8,4.4c0,1.5-.4,3-1.1,4.4s-1.6,2.6-2.8,3.5c-.8,.6-1.6,1.1-2.5,1.4-2.4,.8-5.3-.1-7.4-2.1-2.3-2.3-3.2-5.4-3.5-7.6-.5-3.3-.1-7.5,2.3-9.7,1.2-1,2.6-1.6,4.1-1.5Zm-15.7-6c1.5-.6,3.2-.7,4.8-.4,1.5,.3,2.9,1,4.1,1.9s2.2,2.1,3,3.4c-.6,.3-1.1,.7-1.6,1.1-3.8,3.4-3.2,9.7-3,11.5,0,.2,.1,.3,.1,.5-.4-.1-.7-.1-1.1-.1-2.8,.1-5.4,1.2-7.4,3.1-1.2-2.4-3.1-4.4-5.6-5.6,.1-2.1,.4-4.2,.7-6.2,.3-2.2,.8-4.5,2.1-6.3,1.1-1.3,2.4-2.3,3.9-2.9Zm2.3-39.7c-.1,.1-.1,.3-.1,.5s0,.3,.1,.5c2.3,4.9,1.3,8.4-.2,13.3-.4,1.4-.9,2.9-1.2,4.5-.7,3-1.6,5.9-2.5,8.8-1.4,4.2-2.5,8.4-3.3,12.7v.5c-.2,.2-.4,.5-.6,.7-.9,1.3-1.5,2.8-1.8,4.3-.4-.7-.7-1.4-1.1-2-.3-.6-.7-1.1-1.1-1.6h0c.7-6,3.2-11.7,5.6-17.3,2.1-4.8,4.2-9.7,5.3-14.8,.6-3.5,.8-7,.7-10.6,.1,.1,.1,.3,.2,.5Z"/>
    </g>
  </g>
</svg>